# xmcd CD database file
#
# Track frame offsets:
#	182
#	21607
#	49032
#	71282
#	88057
#	110757
#	138307
#	171820
#	208757
#
# Disc length: 2926 seconds
#
# Revision: 0
# Processed by: cddbd v1.4PL0 Copyright (c) Steve Scherf et al.
# Submitted via: CDex 1.51
#
DISCID=810b6c09
DTITLE=Robert Plant - Montreux 1993
DYEAR=1993
DGENRE=New Age
TTITLE0=Ramble on
TTITLE1=Calling to you
TTITLE2=I believe
TTITLE3=Blue bird
TTITLE4=29 Palms
TTITLE5=What is and what should never be
TTITLE6=Whole lotta love
TTITLE7=You shock me
TTITLE8=If I was a carpenter
EXTD=YEAR: 1993
EXTT0=
EXTT1=
EXTT2=
EXTT3=
EXTT4=
EXTT5=
EXTT6=
EXTT7=
EXTT8=
PLAYORDER=
